<svg xmlns="http://www.w3.org/2000/svg" viewBox="0 0 145.84 47.34"><defs><style>.cls-1{fill:#fff}</style></defs><g id="Layer_2" data-name="Layer 2"><g id="Layer_1-2" data-name="Layer 1"><path d="M0 33a23.43 23.43 0 0 0 4.92-3A27.89 27.89 0 0 1 .51 14.19C.51 5.07 4.36.1 10.25.1c5.58 0 9.22 4.56 9.22 12.35A27.16 27.16 0 0 1 12.91 30a10.3 10.3 0 0 0 6.25 2.11h1.44v5.53h-1.8a16.06 16.06 0 0 1-10.19-3.57 26.68 26.68 0 0 1-6.41 3.54Zm9.17-7.38a22.44 22.44 0 0 0 4.41-13.17c0-4.35-1.33-6.81-3.49-6.81s-3.68 2.61-3.68 8.14a24.4 24.4 0 0 0 2.76 11.84Z" class="cls-1"/><path d="M19.78 24.54c0-7.79 6-13.68 14-13.68s14 5.89 14 13.68-6 13.68-14 13.68-14-5.89-14-13.68Zm22 0a8.07 8.07 0 1 0-16.14 0 8.07 8.07 0 1 0 16.14 0Zm6.49 0c0-7.79 6-13.68 14-13.68s14 5.89 14 13.68-6 13.68-14 13.68-14-5.89-14-13.68Zm22 0a8.07 8.07 0 1 0-16.14 0 8.07 8.07 0 1 0 16.14 0Zm8.09-13.06h5.73v3.74a11.59 11.59 0 0 1 9.23-4.36c7.33 0 12.86 5.89 12.86 13.68s-5.53 13.68-12.86 13.68a11.61 11.61 0 0 1-9.23-4.35v13.47h-5.73Zm21.88 13.06a8.08 8.08 0 1 0-16.15 0 8.08 8.08 0 1 0 16.15 0Zm7.48-20.9a3.67 3.67 0 0 1 7.33 0 3.67 3.67 0 0 1-7.33 0Zm.77 7.84h5.74v26.13h-5.74Zm9.58 0h5.74v3.33a11 11 0 0 1 8.81-4c6.2 0 10.35 4.1 10.35 10.3v8.51a2.2 2.2 0 0 0 2.36 2.41h.51v5.53h-1.64c-4.56 0-7-2.31-7-6.66v-7.84c0-4-2.56-6.66-6.5-6.66-4.15 0-6.92 2.71-6.92 6.76v14.45h-5.74Z" class="cls-1"/></g></g></svg>